<svg width="30" height="29" viewBox="0 0 30 29" fill="none" xmlns="http://www.w3.org/2000/svg">
<g clip-path="url(#clip0_18485_636)">
<path d="M19.4375 15.7083C20.375 15.7083 21.2 15.2129 21.625 14.4637L26.1 6.62166C26.5625 5.82416 25.9625 4.83333 25.0125 4.83333H6.5125L5.3375 2.41666H1.25V4.83333H3.75L8.25 14.0046L6.5625 16.9529C5.65 18.5721 6.85 20.5417 8.75 20.5417H23.75V18.125H8.75L10.125 15.7083H19.4375ZM7.7 7.25H22.8875L19.4375 13.2917H10.6625L7.7 7.25ZM8.75 21.75C7.375 21.75 6.2625 22.8375 6.2625 24.1667C6.2625 25.4958 7.375 26.5833 8.75 26.5833C10.125 26.5833 11.25 25.4958 11.25 24.1667C11.25 22.8375 10.125 21.75 8.75 21.75ZM21.25 21.75C19.875 21.75 18.7625 22.8375 18.7625 24.1667C18.7625 25.4958 19.875 26.5833 21.25 26.5833C22.625 26.5833 23.75 25.4958 23.75 24.1667C23.75 22.8375 22.625 21.75 21.25 21.75Z" fill="black"/>
</g>
<defs>
<clipPath id="clip0_18485_636">
<rect width="30" height="29" fill="white"/>
</clipPath>
</defs>
</svg>
