<svg width="26" height="25" viewBox="0 0 26 25" fill="none" xmlns="http://www.w3.org/2000/svg">
<path d="M18.4375 13.7083C19.375 13.7083 20.2 13.2129 20.625 12.4637L25.1 4.62166C25.5625 3.82416 24.9625 2.83333 24.0125 2.83333H5.5125L4.3375 0.416664H0.25V2.83333H2.75L7.25 12.0046L5.5625 14.9529C4.65 16.5721 5.85 18.5417 7.75 18.5417H22.75V16.125H7.75L9.125 13.7083H18.4375ZM6.7 5.25H21.8875L18.4375 11.2917H9.6625L6.7 5.25ZM7.75 19.75C6.375 19.75 5.2625 20.8375 5.2625 22.1667C5.2625 23.4958 6.375 24.5833 7.75 24.5833C9.125 24.5833 10.25 23.4958 10.25 22.1667C10.25 20.8375 9.125 19.75 7.75 19.75ZM20.25 19.75C18.875 19.75 17.7625 20.8375 17.7625 22.1667C17.7625 23.4958 18.875 24.5833 20.25 24.5833C21.625 24.5833 22.75 23.4958 22.75 22.1667C22.75 20.8375 21.625 19.75 20.25 19.75Z" fill="white"/>
</svg>
